<svg xmlns="http://www.w3.org/2000/svg" xmlns:xlink="http://www.w3.org/1999/xlink" width="499.93" height="376.67" viewBox="0 0 499.93 376.67">
  <defs>
    <filter id="Ellipse_873" x="0" y="0" width="499.93" height="376.67" filterUnits="userSpaceOnUse">
      <feOffset dy="3" input="SourceAlpha"/>
      <feGaussianBlur stdDeviation="42" result="blur"/>
      <feFlood flood-color="#1fbdd9" flood-opacity="0.502"/>
      <feComposite operator="in" in2="blur"/>
    </filter>
    <filter id="Ellipse_841" x="40.878" y="148.737" width="416.561" height="119.932" filterUnits="userSpaceOnUse">
      <feOffset dy="3" input="SourceAlpha"/>
      <feGaussianBlur stdDeviation="6" result="blur-2"/>
      <feFlood flood-color="#051119" flood-opacity="0.675"/>
      <feComposite operator="in" in2="blur-2"/>
    </filter>
    <clipPath id="clip-path">
      <path id="Path_19705" data-name="Path 19705" d="M1867.932,241.105V229.692c4.626,2.386,6.974,4.7,6.974,6.89V248C1874.906,245.809,1872.558,243.492,1867.932,241.105Z" transform="translate(-1867.932 -229.692)" fill="none"/>
    </clipPath>
    <clipPath id="clip-path-2">
      <path id="Path_19707" data-name="Path 19707" d="M284,160.606V149.193c0-2.187,2.347-4.5,6.973-6.89,5.938-3.061,15.284-6.032,27.03-8.592a382.089,382.089,0,0,1,45.615-6.676c18.3-1.688,37.8-2.544,57.961-2.544s39.66.855,57.961,2.544a382,382,0,0,1,45.615,6.676c11.749,2.56,21.1,5.531,27.03,8.592v11.413c-5.935-3.061-15.281-6.032-27.03-8.592a382.04,382.04,0,0,0-45.615-6.676c-18.3-1.688-37.8-2.544-57.961-2.544s-39.66.855-57.961,2.544A382.13,382.13,0,0,0,318,145.123c-11.746,2.56-21.093,5.532-27.03,8.592C286.347,156.1,284,158.42,284,160.606Z" transform="translate(-284 -124.49)" fill="none"/>
    </clipPath>
    <clipPath id="clip-path-3">
      <path id="Path_19709" data-name="Path 19709" d="M2163.051,292.912V281.5c3.38-3.6,5.091-7.339,5.091-11.112V281.8C2168.142,285.572,2166.432,289.311,2163.051,292.912Z" transform="translate(-2163.051 -270.386)" fill="none"/>
    </clipPath>
    <clipPath id="clip-path-4">
      <path id="Path_19712" data-name="Path 19712" d="M0,281.8V270.386c0,3.773,1.713,7.512,5.091,11.112a49.229,49.229,0,0,0,13.336,9.433c10.259,5.289,24.473,9.936,42.246,13.81,33.789,7.368,78.178,11.425,124.992,11.425s91.2-4.057,124.993-11.425c17.772-3.875,31.986-8.522,42.246-13.81a49.228,49.228,0,0,0,13.336-9.433v11.414a49.23,49.23,0,0,1-13.336,9.433c-10.259,5.289-24.473,9.936-42.246,13.811-33.789,7.368-78.178,11.425-124.993,11.425s-91.2-4.057-124.992-11.425c-17.772-3.875-31.986-8.522-42.246-13.811a49.232,49.232,0,0,1-13.336-9.433C1.713,289.311,0,285.572,0,281.8Z" transform="translate(0 -270.386)" fill="none"/>
    </clipPath>
    <clipPath id="clip-path-5">
      <path id="Path_19705-2" data-name="Path 19705" d="M1867.932,239.272v-9.58c3.883,2,5.853,3.948,5.853,5.783v9.58C1873.785,243.22,1871.815,241.275,1867.932,239.272Z" transform="translate(-1867.932 -229.692)" fill="none"/>
    </clipPath>
    <clipPath id="clip-path-6">
      <path id="Path_19707-2" data-name="Path 19707" d="M284,154.8v-9.58c0-1.835,1.97-3.78,5.853-5.783,4.984-2.569,12.829-5.063,22.688-7.212a320.7,320.7,0,0,1,38.286-5.6c15.36-1.417,31.73-2.135,48.649-2.135s33.289.718,48.649,2.135a320.627,320.627,0,0,1,38.287,5.6c9.861,2.149,17.706,4.643,22.688,7.212v9.58c-4.981-2.569-12.826-5.063-22.688-7.212a320.657,320.657,0,0,0-38.287-5.6c-15.36-1.417-31.73-2.135-48.649-2.135s-33.288.718-48.649,2.135a320.733,320.733,0,0,0-38.286,5.6c-9.859,2.149-17.7,4.643-22.688,7.212C285.97,151.024,284,152.969,284,154.8Z" transform="translate(-284 -124.49)" fill="none"/>
    </clipPath>
    <clipPath id="clip-path-7">
      <path id="Path_19709-2" data-name="Path 19709" d="M2163.051,289.293v-9.58c2.837-3.022,4.273-6.16,4.273-9.327v9.58C2167.324,283.133,2165.889,286.271,2163.051,289.293Z" transform="translate(-2163.051 -270.386)" fill="none"/>
    </clipPath>
    <clipPath id="clip-path-8">
      <path id="Path_19712-2" data-name="Path 19712" d="M0,279.966v-9.58c0,3.167,1.438,6.3,4.273,9.327a41.321,41.321,0,0,0,11.193,7.917c8.611,4.439,20.541,8.339,35.459,11.592,28.36,6.185,65.618,9.59,104.912,9.59s76.551-3.405,104.912-9.59c14.917-3.252,26.848-7.153,35.459-11.592a41.321,41.321,0,0,0,11.193-7.917v9.58a41.321,41.321,0,0,1-11.193,7.917c-8.611,4.439-20.541,8.34-35.459,11.592-28.36,6.184-65.618,9.59-104.912,9.59s-76.551-3.405-104.912-9.59c-14.917-3.252-26.848-7.153-35.459-11.592a41.321,41.321,0,0,1-11.193-7.917C1.438,286.271,0,283.133,0,279.966Z" transform="translate(0 -270.386)" fill="none"/>
    </clipPath>
    <clipPath id="clip-path-9">
      <path id="Path_19705-3" data-name="Path 19705" d="M1867.932,237.47v-7.778c3.153,1.626,4.752,3.205,4.752,4.7v7.778C1872.684,240.675,1871.085,239.1,1867.932,237.47Z" transform="translate(-1867.932 -229.692)" fill="none"/>
    </clipPath>
    <clipPath id="clip-path-10">
      <path id="Path_19707-3" data-name="Path 19707" d="M284,149.1v-7.778c0-1.49,1.6-3.069,4.752-4.7,4.046-2.086,10.416-4.111,18.421-5.855a260.38,260.38,0,0,1,31.085-4.55c12.471-1.15,25.762-1.733,39.5-1.733s27.027.583,39.5,1.733a260.317,260.317,0,0,1,31.085,4.55c8.007,1.745,14.376,3.769,18.42,5.855v7.778c-4.044-2.086-10.414-4.111-18.42-5.855A260.348,260.348,0,0,0,417.255,134c-12.471-1.151-25.762-1.733-39.5-1.733s-27.027.583-39.5,1.733a260.41,260.41,0,0,0-31.085,4.55c-8,1.745-14.374,3.77-18.421,5.855C285.6,146.033,284,147.612,284,149.1Z" transform="translate(-284 -124.49)" fill="none"/>
    </clipPath>
    <clipPath id="clip-path-11">
      <path id="Path_19709-3" data-name="Path 19709" d="M2163.051,285.737v-7.778c2.3-2.453,3.469-5,3.469-7.573v7.778C2166.521,280.735,2165.355,283.283,2163.051,285.737Z" transform="translate(-2163.051 -270.386)" fill="none"/>
    </clipPath>
    <clipPath id="clip-path-12">
      <path id="Path_19712-3" data-name="Path 19712" d="M0,278.164v-7.778c0,2.571,1.168,5.119,3.469,7.573a33.547,33.547,0,0,0,9.088,6.428c6.991,3.6,16.678,6.771,28.789,9.411,23.026,5.021,53.276,7.786,85.179,7.786s62.153-2.765,85.179-7.786c12.111-2.64,21.8-5.807,28.789-9.411a33.547,33.547,0,0,0,9.088-6.428v7.778a33.548,33.548,0,0,1-9.088,6.428c-6.991,3.6-16.678,6.771-28.789,9.412-23.026,5.021-53.276,7.786-85.179,7.786s-62.153-2.765-85.179-7.786c-12.111-2.641-21.8-5.807-28.789-9.412a33.548,33.548,0,0,1-9.088-6.428C1.168,283.283,0,280.735,0,278.164Z" transform="translate(0 -270.386)" fill="#03090d"/>
    </clipPath>
    <clipPath id="clip-path-13">
      <path id="Path_19705-4" data-name="Path 19705" d="M1867.932,235.73v-6.038c2.447,1.262,3.689,2.488,3.689,3.645v6.038C1871.621,238.218,1870.379,236.993,1867.932,235.73Z" transform="translate(-1867.932 -229.692)" fill="none"/>
    </clipPath>
    <clipPath id="clip-path-14">
      <path id="Path_19707-4" data-name="Path 19707" d="M284,143.6v-6.038c0-1.157,1.242-2.383,3.689-3.645,3.141-1.619,8.086-3.191,14.3-4.546a202.13,202.13,0,0,1,24.131-3.532c9.681-.893,20-1.346,30.662-1.346s20.981.453,30.662,1.346a202.082,202.082,0,0,1,24.131,3.532c6.215,1.354,11.16,2.926,14.3,4.546v6.038c-3.14-1.619-8.084-3.191-14.3-4.546a202.11,202.11,0,0,0-24.131-3.532c-9.681-.893-20-1.346-30.662-1.346s-20.981.453-30.662,1.346a202.158,202.158,0,0,0-24.131,3.532c-6.214,1.354-11.159,2.926-14.3,4.546C285.242,141.214,284,142.439,284,143.6Z" transform="translate(-284 -124.49)" fill="none"/>
    </clipPath>
    <clipPath id="clip-path-15">
      <path id="Path_19709-4" data-name="Path 19709" d="M2163.051,282.3v-6.038a8.643,8.643,0,0,0,2.693-5.878v6.038A8.644,8.644,0,0,1,2163.051,282.3Z" transform="translate(-2163.051 -270.386)" fill="#03090d"/>
    </clipPath>
    <clipPath id="clip-path-16">
      <path id="Path_19712-4" data-name="Path 19712" d="M0,276.424v-6.038a8.649,8.649,0,0,0,2.693,5.878,26.041,26.041,0,0,0,7.055,4.99c5.427,2.8,12.947,5.256,22.349,7.306,17.875,3.9,41.358,6.044,66.124,6.044s48.249-2.146,66.124-6.044c9.4-2.05,16.921-4.508,22.349-7.306a26.041,26.041,0,0,0,7.055-4.99V282.3a26.045,26.045,0,0,1-7.055,4.99c-5.427,2.8-12.947,5.256-22.349,7.306-17.875,3.9-41.358,6.044-66.124,6.044S49.972,298.5,32.1,294.6c-9.4-2.05-16.921-4.508-22.349-7.306a26.045,26.045,0,0,1-7.055-4.99A8.649,8.649,0,0,1,0,276.424Z" transform="translate(0 -270.386)" fill="#03090d"/>
    </clipPath>
  </defs>
  <g id="Fico3" transform="translate(58.829 123)">
    <g transform="matrix(1, 0, 0, 1, -58.83, -123)" filter="url(#Ellipse_873)">
      <ellipse id="Ellipse_873-2" data-name="Ellipse 873" cx="123.965" cy="62.335" rx="123.965" ry="62.335" transform="translate(126 123)" fill="#fff"/>
    </g>
    <g id="Group_16682" data-name="Group 16682" transform="translate(0 0)">
      <g transform="matrix(1, 0, 0, 1, -58.83, -123)" filter="url(#Ellipse_841)">
        <ellipse id="Ellipse_841-2" data-name="Ellipse 841" cx="190.28" cy="41.966" rx="190.28" ry="41.966" transform="translate(58.88 163.74)" fill="#fff"/>
      </g>
      <g id="Group_16593" data-name="Group 16593" transform="translate(0 12.833)">
        <g id="Group_16523" data-name="Group 16523" transform="translate(0)" style="mix-blend-mode: normal;isolation: isolate">
          <g id="Group_16512" data-name="Group 16512" transform="translate(316.271 38.89)" style="mix-blend-mode: normal;isolation: isolate">
            <g id="Group_16511" data-name="Group 16511" clip-path="url(#clip-path)">
              <g id="Group_16510" data-name="Group 16510" style="mix-blend-mode: normal;isolation: isolate">
                <path id="Path_19704" data-name="Path 19704" d="M1867.932,241.105V229.692c4.626,2.386,6.974,4.7,6.974,6.89V248c0-2.186-2.347-4.5-6.974-6.89" transform="translate(-1867.932 -229.692)" fill="#03090d"/>
              </g>
            </g>
          </g>
          <g id="Group_16515" data-name="Group 16515" transform="translate(48.086 21.078)" style="mix-blend-mode: normal;isolation: isolate">
            <g id="Group_16514" data-name="Group 16514" clip-path="url(#clip-path-2)">
              <g id="Group_16513" data-name="Group 16513" style="mix-blend-mode: normal;isolation: isolate">
                <path id="Path_19706" data-name="Path 19706" d="M284,160.606V149.193c0-2.187,2.347-4.5,6.973-6.89,5.938-3.061,15.284-6.032,27.03-8.592a382.089,382.089,0,0,1,45.615-6.676c18.3-1.688,37.8-2.544,57.961-2.544s39.66.855,57.961,2.544a382,382,0,0,1,45.615,6.676c11.749,2.56,21.1,5.531,27.03,8.592v11.413c-5.935-3.061-15.281-6.032-27.03-8.592a382.04,382.04,0,0,0-45.615-6.676c-18.3-1.688-37.8-2.544-57.961-2.544s-39.66.855-57.961,2.544A382.13,382.13,0,0,0,318,145.123c-11.746,2.56-21.093,5.532-27.03,8.592-4.626,2.387-6.973,4.7-6.973,6.89" transform="translate(-284 -124.49)" fill="#03090d"/>
              </g>
            </g>
          </g>
          <g id="Group_16518" data-name="Group 16518" transform="translate(366.239 45.781)" style="mix-blend-mode: normal;isolation: isolate">
            <g id="Group_16517" data-name="Group 16517" clip-path="url(#clip-path-3)">
              <g id="Group_16516" data-name="Group 16516" style="mix-blend-mode: normal;isolation: isolate">
                <path id="Path_19708" data-name="Path 19708" d="M2163.051,292.912V281.5c3.38-3.6,5.091-7.339,5.091-11.112V281.8c0,3.773-1.71,7.512-5.091,11.112" transform="translate(-2163.051 -270.386)" fill="#03090d"/>
              </g>
            </g>
          </g>
          <g id="Group_16519" data-name="Group 16519">
            <path id="Path_19710" data-name="Path 19710" d="M366.239,56.893A49.227,49.227,0,0,1,352.9,66.325c-10.259,5.289-24.473,9.936-42.246,13.81C276.869,87.5,232.479,91.561,185.665,91.561S94.461,87.5,60.672,80.136C42.9,76.261,28.686,71.614,18.427,66.325A49.228,49.228,0,0,1,5.091,56.893C1.713,53.292,0,49.553,0,45.781s1.713-7.513,5.091-11.112a49.2,49.2,0,0,1,13.336-9.433C28.686,19.946,42.9,15.3,60.672,11.424,94.461,4.057,138.851,0,185.665,0s91.2,4.057,124.993,11.424C328.43,15.3,342.644,19.946,352.9,25.236a49.2,49.2,0,0,1,13.336,9.433c3.381,3.6,5.091,7.339,5.091,11.112S369.619,53.292,366.239,56.893Zm-49.968-18c-5.935-3.061-15.281-6.032-27.03-8.592a382,382,0,0,0-45.615-6.676c-18.3-1.688-37.8-2.544-57.961-2.544S146,21.933,127.7,23.622A382.09,382.09,0,0,0,82.09,30.3C70.344,32.858,61,35.83,55.059,38.89c-4.626,2.386-6.973,4.7-6.973,6.89s2.347,4.5,6.973,6.89C61,55.73,70.344,58.7,82.09,61.263A382.145,382.145,0,0,0,127.7,67.938c18.3,1.688,37.8,2.544,57.961,2.544s39.66-.855,57.961-2.544a382.055,382.055,0,0,0,45.615-6.675c11.749-2.561,21.1-5.533,27.03-8.592,4.626-2.387,6.974-4.7,6.974-6.89s-2.348-4.5-6.974-6.89" transform="translate(0 0)" fill="#031d2e"/>
          </g>
          <g id="Group_16522" data-name="Group 16522" transform="translate(0 45.781)" style="mix-blend-mode: normal;isolation: isolate">
            <g id="Group_16521" data-name="Group 16521" clip-path="url(#clip-path-4)">
              <g id="Group_16520" data-name="Group 16520" style="mix-blend-mode: normal;isolation: isolate">
                <path id="Path_19711" data-name="Path 19711" d="M0,281.8V270.386c0,3.773,1.713,7.512,5.091,11.112a49.229,49.229,0,0,0,13.336,9.433c10.259,5.289,24.473,9.936,42.246,13.81,33.789,7.368,78.178,11.425,124.992,11.425s91.2-4.057,124.993-11.425c17.772-3.875,31.986-8.522,42.246-13.81a49.228,49.228,0,0,0,13.336-9.433v11.414a49.23,49.23,0,0,1-13.336,9.433c-10.259,5.289-24.473,9.936-42.246,13.811-33.789,7.368-78.178,11.425-124.993,11.425s-91.2-4.057-124.992-11.425c-17.772-3.875-31.986-8.522-42.246-13.811a49.232,49.232,0,0,1-13.336-9.433C1.713,289.311,0,285.572,0,281.8" transform="translate(0 -270.386)" fill="#03090d"/>
              </g>
            </g>
          </g>
        </g>
      </g>
      <g id="Group_16594" data-name="Group 16594" transform="translate(29.83 6.493)">
        <g id="Group_16523-2" data-name="Group 16523" transform="translate(0)" style="mix-blend-mode: normal;isolation: isolate">
          <g id="Group_16512-2" data-name="Group 16512" transform="translate(265.46 32.642)" style="mix-blend-mode: normal;isolation: isolate">
            <g id="Group_16511-2" data-name="Group 16511" clip-path="url(#clip-path-5)">
              <g id="Group_16510-2" data-name="Group 16510" style="mix-blend-mode: normal;isolation: isolate">
                <path id="Path_19704-2" data-name="Path 19704" d="M1867.932,239.272v-9.58c3.883,2,5.853,3.948,5.853,5.783v9.58c0-1.835-1.97-3.78-5.853-5.783" transform="translate(-1867.932 -229.692)" fill="#03090d"/>
              </g>
            </g>
          </g>
          <g id="Group_16515-2" data-name="Group 16515" transform="translate(40.36 17.692)" style="mix-blend-mode: normal;isolation: isolate">
            <g id="Group_16514-2" data-name="Group 16514" clip-path="url(#clip-path-6)">
              <g id="Group_16513-2" data-name="Group 16513" style="mix-blend-mode: normal;isolation: isolate">
                <path id="Path_19706-2" data-name="Path 19706" d="M284,154.8v-9.58c0-1.835,1.97-3.78,5.853-5.783,4.984-2.569,12.829-5.063,22.688-7.212a320.7,320.7,0,0,1,38.286-5.6c15.36-1.417,31.73-2.135,48.649-2.135s33.289.718,48.649,2.135a320.627,320.627,0,0,1,38.287,5.6c9.861,2.149,17.706,4.643,22.688,7.212v9.58c-4.981-2.569-12.826-5.063-22.688-7.212a320.657,320.657,0,0,0-38.287-5.6c-15.36-1.417-31.73-2.135-48.649-2.135s-33.288.718-48.649,2.135a320.733,320.733,0,0,0-38.286,5.6c-9.859,2.149-17.7,4.643-22.688,7.212-3.883,2-5.853,3.948-5.853,5.783" transform="translate(-284 -124.49)" fill="#03090d"/>
              </g>
            </g>
          </g>
          <g id="Group_16518-2" data-name="Group 16518" transform="translate(307.4 38.426)" style="mix-blend-mode: normal;isolation: isolate">
            <g id="Group_16517-2" data-name="Group 16517" clip-path="url(#clip-path-7)">
              <g id="Group_16516-2" data-name="Group 16516" style="mix-blend-mode: normal;isolation: isolate">
                <path id="Path_19708-2" data-name="Path 19708" d="M2163.051,289.293v-9.58c2.837-3.022,4.273-6.16,4.273-9.327v9.58c0,3.167-1.436,6.3-4.273,9.327" transform="translate(-2163.051 -270.386)" fill="#03090d"/>
              </g>
            </g>
          </g>
          <g id="Group_16519-2" data-name="Group 16519">
            <path id="Path_19710-2" data-name="Path 19710" d="M307.4,47.752a41.319,41.319,0,0,1-11.193,7.917c-8.611,4.439-20.541,8.34-35.459,11.592-28.36,6.185-65.618,9.59-104.912,9.59s-76.551-3.405-104.912-9.59C36.008,64.009,24.078,60.109,15.466,55.67A41.319,41.319,0,0,1,4.273,47.752C1.438,44.731,0,41.592,0,38.426S1.438,32.12,4.273,29.1a41.3,41.3,0,0,1,11.193-7.917c8.611-4.44,20.541-8.34,35.459-11.593C79.285,3.405,116.543,0,155.837,0s76.551,3.405,104.912,9.589c14.917,3.253,26.848,7.153,35.459,11.593A41.3,41.3,0,0,1,307.4,29.1c2.837,3.021,4.273,6.16,4.273,9.327S310.238,44.731,307.4,47.752ZM265.46,32.642c-4.981-2.569-12.826-5.063-22.688-7.212a320.629,320.629,0,0,0-38.287-5.6c-15.36-1.417-31.73-2.135-48.649-2.135s-33.288.718-48.649,2.135a320.7,320.7,0,0,0-38.286,5.6c-9.859,2.149-17.7,4.643-22.688,7.212-3.883,2-5.853,3.948-5.853,5.783s1.97,3.78,5.853,5.783C51.2,46.777,59.042,49.271,68.9,51.421a320.752,320.752,0,0,0,38.286,5.6c15.36,1.417,31.73,2.135,48.649,2.135s33.289-.718,48.649-2.135a320.676,320.676,0,0,0,38.287-5.6c9.861-2.15,17.706-4.644,22.688-7.212,3.883-2,5.853-3.948,5.853-5.783s-1.97-3.78-5.853-5.783" transform="translate(0 0)" fill="#031d2e"/>
          </g>
          <g id="Group_16522-2" data-name="Group 16522" transform="translate(0 38.426)" style="mix-blend-mode: normal;isolation: isolate">
            <g id="Group_16521-2" data-name="Group 16521" clip-path="url(#clip-path-8)">
              <g id="Group_16520-2" data-name="Group 16520" style="mix-blend-mode: normal;isolation: isolate">
                <path id="Path_19711-2" data-name="Path 19711" d="M0,279.966v-9.58c0,3.167,1.438,6.3,4.273,9.327a41.321,41.321,0,0,0,11.193,7.917c8.611,4.439,20.541,8.339,35.459,11.592,28.36,6.185,65.618,9.59,104.912,9.59s76.551-3.405,104.912-9.59c14.917-3.252,26.848-7.153,35.459-11.592a41.321,41.321,0,0,0,11.193-7.917v9.58a41.321,41.321,0,0,1-11.193,7.917c-8.611,4.439-20.541,8.34-35.459,11.592-28.36,6.184-65.618,9.59-104.912,9.59s-76.551-3.405-104.912-9.59c-14.917-3.252-26.848-7.153-35.459-11.592a41.321,41.321,0,0,1-11.193-7.917C1.438,286.271,0,283.133,0,279.966" transform="translate(0 -270.386)" fill="#03090d"/>
              </g>
            </g>
          </g>
        </g>
      </g>
      <g id="Group_16595" data-name="Group 16595" transform="translate(59.141 2.581)">
        <g id="Group_16523-3" data-name="Group 16523" transform="translate(0)" style="mix-blend-mode: normal;isolation: isolate">
          <g id="Group_16512-3" data-name="Group 16512" transform="translate(215.53 26.503)" style="mix-blend-mode: normal;isolation: isolate">
            <g id="Group_16511-3" data-name="Group 16511" clip-path="url(#clip-path-9)">
              <g id="Group_16510-3" data-name="Group 16510" style="mix-blend-mode: normal;isolation: isolate">
                <path id="Path_19704-3" data-name="Path 19704" d="M1867.932,237.47v-7.778c3.153,1.626,4.752,3.205,4.752,4.7v7.778c0-1.49-1.6-3.069-4.752-4.7" transform="translate(-1867.932 -229.692)" fill="#03090d"/>
              </g>
            </g>
          </g>
          <g id="Group_16515-3" data-name="Group 16515" transform="translate(32.769 14.364)" style="mix-blend-mode: normal;isolation: isolate">
            <g id="Group_16514-3" data-name="Group 16514" clip-path="url(#clip-path-10)">
              <g id="Group_16513-3" data-name="Group 16513" style="mix-blend-mode: normal;isolation: isolate">
                <path id="Path_19706-3" data-name="Path 19706" d="M284,149.1v-7.778c0-1.49,1.6-3.069,4.752-4.7,4.046-2.086,10.416-4.111,18.421-5.855a260.38,260.38,0,0,1,31.085-4.55c12.471-1.15,25.762-1.733,39.5-1.733s27.027.583,39.5,1.733a260.317,260.317,0,0,1,31.085,4.55c8.007,1.745,14.376,3.769,18.42,5.855v7.778c-4.044-2.086-10.414-4.111-18.42-5.855A260.348,260.348,0,0,0,417.255,134c-12.471-1.151-25.762-1.733-39.5-1.733s-27.027.583-39.5,1.733a260.41,260.41,0,0,0-31.085,4.55c-8,1.745-14.374,3.77-18.421,5.855-3.152,1.626-4.752,3.205-4.752,4.7" transform="translate(-284 -124.49)" fill="#03090d"/>
              </g>
            </g>
          </g>
          <g id="Group_16518-3" data-name="Group 16518" transform="translate(249.582 31.198)" style="mix-blend-mode: normal;isolation: isolate">
            <g id="Group_16517-3" data-name="Group 16517" clip-path="url(#clip-path-11)">
              <g id="Group_16516-3" data-name="Group 16516" style="mix-blend-mode: normal;isolation: isolate">
                <path id="Path_19708-3" data-name="Path 19708" d="M2163.051,285.737v-7.778c2.3-2.453,3.469-5,3.469-7.573v7.778c0,2.571-1.166,5.119-3.469,7.573" transform="translate(-2163.051 -270.386)" fill="#03090d"/>
              </g>
            </g>
          </g>
          <g id="Group_16519-3" data-name="Group 16519">
            <path id="Path_19710-3" data-name="Path 19710" d="M249.582,38.771a33.547,33.547,0,0,1-9.088,6.428C233.5,48.8,223.816,51.97,211.7,54.61c-23.026,5.021-53.276,7.786-85.179,7.786S64.373,59.632,41.347,54.61C29.235,51.97,19.549,48.8,12.557,45.2a33.548,33.548,0,0,1-9.088-6.428C1.168,36.317,0,33.769,0,31.2s1.168-5.12,3.469-7.573A33.53,33.53,0,0,1,12.557,17.2c6.991-3.6,16.678-6.771,28.789-9.412C64.373,2.765,94.623,0,126.525,0S188.678,2.765,211.7,7.785c12.111,2.641,21.8,5.807,28.789,9.412a33.529,33.529,0,0,1,9.088,6.428c2.3,2.453,3.469,5,3.469,7.573S251.885,36.317,249.582,38.771ZM215.53,26.5c-4.044-2.086-10.414-4.111-18.42-5.855a260.323,260.323,0,0,0-31.085-4.55c-12.471-1.15-25.762-1.733-39.5-1.733s-27.027.583-39.5,1.733a260.383,260.383,0,0,0-31.085,4.55c-8,1.745-14.374,3.769-18.42,5.855-3.153,1.626-4.752,3.205-4.752,4.7s1.6,3.069,4.752,4.7c4.046,2.085,10.416,4.11,18.42,5.855A260.423,260.423,0,0,0,87.027,46.3c12.471,1.15,25.762,1.733,39.5,1.733s27.027-.583,39.5-1.733a260.362,260.362,0,0,0,31.085-4.549c8.006-1.745,14.376-3.77,18.42-5.855,3.153-1.626,4.752-3.205,4.752-4.7s-1.6-3.069-4.752-4.7" transform="translate(0 0)" fill="#1fbdd9"/>
          </g>
          <g id="Group_16522-3" data-name="Group 16522" transform="translate(0 31.198)" style="mix-blend-mode: normal;isolation: isolate">
            <g id="Group_16521-3" data-name="Group 16521" clip-path="url(#clip-path-12)">
              <g id="Group_16520-3" data-name="Group 16520" style="mix-blend-mode: normal;isolation: isolate">
                <path id="Path_19711-3" data-name="Path 19711" d="M0,278.164v-7.778c0,2.571,1.168,5.119,3.469,7.573a33.547,33.547,0,0,0,9.088,6.428c6.991,3.6,16.678,6.771,28.789,9.411,23.026,5.021,53.276,7.786,85.179,7.786s62.153-2.765,85.179-7.786c12.111-2.64,21.8-5.807,28.789-9.411a33.547,33.547,0,0,0,9.088-6.428v7.778a33.548,33.548,0,0,1-9.088,6.428c-6.991,3.6-16.678,6.771-28.789,9.412-23.026,5.021-53.276,7.786-85.179,7.786s-62.153-2.765-85.179-7.786c-12.111-2.641-21.8-5.807-28.789-9.412a33.548,33.548,0,0,1-9.088-6.428c-2.3-2.454-3.469-5-3.469-7.573" transform="translate(0 -270.386)" fill="#03090d"/>
              </g>
            </g>
          </g>
        </g>
      </g>
      <g id="Group_16596" data-name="Group 16596" transform="translate(87.445)">
        <g id="Group_16523-4" data-name="Group 16523" transform="translate(0)" style="mix-blend-mode: normal;isolation: isolate">
          <g id="Group_16512-4" data-name="Group 16512" transform="translate(167.314 20.574)" style="mix-blend-mode: normal;isolation: isolate">
            <g id="Group_16511-4" data-name="Group 16511" clip-path="url(#clip-path-13)">
              <g id="Group_16510-4" data-name="Group 16510" style="mix-blend-mode: normal;isolation: isolate">
                <path id="Path_19704-4" data-name="Path 19704" d="M1867.932,235.73v-6.038c2.447,1.262,3.689,2.488,3.689,3.645v6.038c0-1.157-1.242-2.383-3.689-3.645" transform="translate(-1867.932 -229.692)" fill="#03090d"/>
              </g>
            </g>
          </g>
          <g id="Group_16515-4" data-name="Group 16515" transform="translate(25.438 11.151)" style="mix-blend-mode: normal;isolation: isolate">
            <g id="Group_16514-4" data-name="Group 16514" clip-path="url(#clip-path-14)">
              <g id="Group_16513-4" data-name="Group 16513" style="mix-blend-mode: normal;isolation: isolate">
                <path id="Path_19706-4" data-name="Path 19706" d="M284,143.6v-6.038c0-1.157,1.242-2.383,3.689-3.645,3.141-1.619,8.086-3.191,14.3-4.546a202.13,202.13,0,0,1,24.131-3.532c9.681-.893,20-1.346,30.662-1.346s20.981.453,30.662,1.346a202.082,202.082,0,0,1,24.131,3.532c6.215,1.354,11.16,2.926,14.3,4.546v6.038c-3.14-1.619-8.084-3.191-14.3-4.546a202.11,202.11,0,0,0-24.131-3.532c-9.681-.893-20-1.346-30.662-1.346s-20.981.453-30.662,1.346a202.158,202.158,0,0,0-24.131,3.532c-6.214,1.354-11.159,2.926-14.3,4.546-2.447,1.263-3.689,2.488-3.689,3.645" transform="translate(-284 -124.49)" fill="#03090d"/>
              </g>
            </g>
          </g>
          <g id="Group_16518-4" data-name="Group 16518" transform="translate(193.749 24.219)" style="mix-blend-mode: normal;isolation: isolate">
            <g id="Group_16517-4" data-name="Group 16517" clip-path="url(#clip-path-15)">
              <g id="Group_16516-4" data-name="Group 16516" style="mix-blend-mode: normal;isolation: isolate">
                <path id="Path_19708-4" data-name="Path 19708" d="M2163.051,282.3v-6.038a8.643,8.643,0,0,0,2.693-5.878v6.038a8.644,8.644,0,0,1-2.693,5.879" transform="translate(-2163.051 -270.386)" fill="#03090d"/>
              </g>
            </g>
          </g>
          <g id="Group_16519-4" data-name="Group 16519">
            <path id="Path_19710-4" data-name="Path 19710" d="M193.749,30.1a26.043,26.043,0,0,1-7.055,4.99c-5.427,2.8-12.947,5.256-22.349,7.306-17.875,3.9-41.358,6.044-66.124,6.044S49.972,46.292,32.1,42.394c-9.4-2.05-16.921-4.508-22.349-7.306A26.043,26.043,0,0,1,2.693,30.1,8.649,8.649,0,0,1,0,24.219,8.648,8.648,0,0,1,2.693,18.34a26.029,26.029,0,0,1,7.055-4.99C15.176,10.552,22.7,8.094,32.1,6.044,49.972,2.146,73.455,0,98.221,0s48.249,2.146,66.124,6.044c9.4,2.05,16.921,4.508,22.349,7.307a26.029,26.029,0,0,1,7.055,4.99,8.641,8.641,0,0,1,2.693,5.879A8.642,8.642,0,0,1,193.749,30.1Zm-26.434-9.524c-3.14-1.619-8.084-3.191-14.3-4.546A202.086,202.086,0,0,0,128.883,12.5c-9.681-.893-20-1.346-30.662-1.346S77.24,11.6,67.558,12.5a202.133,202.133,0,0,0-24.131,3.532c-6.214,1.354-11.159,2.926-14.3,4.546-2.447,1.262-3.689,2.488-3.689,3.645s1.242,2.383,3.689,3.645c3.141,1.619,8.086,3.191,14.3,4.546a202.163,202.163,0,0,0,24.131,3.531c9.681.893,20,1.346,30.662,1.346s20.981-.453,30.662-1.346a202.116,202.116,0,0,0,24.131-3.531c6.215-1.355,11.16-2.927,14.3-4.546C169.762,26.6,171,25.376,171,24.219s-1.242-2.383-3.689-3.645" transform="translate(0 0)" fill="#031d2e"/>
          </g>
          <g id="Group_16522-4" data-name="Group 16522" transform="translate(0 24.219)" style="mix-blend-mode: normal;isolation: isolate">
            <g id="Group_16521-4" data-name="Group 16521" clip-path="url(#clip-path-16)">
              <g id="Group_16520-4" data-name="Group 16520" style="mix-blend-mode: normal;isolation: isolate">
                <path id="Path_19711-4" data-name="Path 19711" d="M0,276.424v-6.038a8.649,8.649,0,0,0,2.693,5.878,26.041,26.041,0,0,0,7.055,4.99c5.427,2.8,12.947,5.256,22.349,7.306,17.875,3.9,41.358,6.044,66.124,6.044s48.249-2.146,66.124-6.044c9.4-2.05,16.921-4.508,22.349-7.306a26.041,26.041,0,0,0,7.055-4.99V282.3a26.045,26.045,0,0,1-7.055,4.99c-5.427,2.8-12.947,5.256-22.349,7.306-17.875,3.9-41.358,6.044-66.124,6.044S49.972,298.5,32.1,294.6c-9.4-2.05-16.921-4.508-22.349-7.306a26.045,26.045,0,0,1-7.055-4.99A8.649,8.649,0,0,1,0,276.424" transform="translate(0 -270.386)" fill="#03090d"/>
              </g>
            </g>
          </g>
        </g>
      </g>
    </g>
  </g>
</svg>
